<svg width="32" height="32" viewBox="0 0 32 32" fill="none" xmlns="http://www.w3.org/2000/svg">
<path fill-rule="evenodd" clip-rule="evenodd" d="M10.5835 16C10.5835 15.3096 10.0238 14.75 9.3335 14.75C8.64314 14.75 8.0835 15.3096 8.0835 16C8.0835 16.6904 8.64314 17.25 9.3335 17.25C10.0238 17.25 10.5835 16.6904 10.5835 16ZM23.9168 16C23.9168 15.3096 23.3572 14.75 22.6668 14.75C21.9765 14.75 21.4168 15.3096 21.4168 16C21.4168 16.6904 21.9765 17.25 22.6668 17.25C23.3572 17.25 23.9168 16.6904 23.9168 16ZM17.2502 16C17.2502 15.3096 16.6905 14.75 16.0002 14.75C15.3098 14.75 14.7502 15.3096 14.7502 16C14.7502 16.6904 15.3098 17.25 16.0002 17.25C16.6905 17.25 17.2502 16.6904 17.2502 16Z" fill="currentColor"/>
</svg>
