<svg width="20" height="20" viewBox="0 0 20 20" fill="none" xmlns="http://www.w3.org/2000/svg">
<path d="M10 3.33398C10.221 3.33398 10.433 3.42178 10.5893 3.57806C10.7455 3.73434 10.8333 3.9463 10.8333 4.16732V15.834C10.8333 16.055 10.7455 16.267 10.5893 16.4232C10.433 16.5795 10.221 16.6673 10 16.6673C9.77899 16.6673 9.56702 16.5795 9.41074 16.4232C9.25446 16.267 9.16667 16.055 9.16667 15.834V4.16732C9.16667 3.9463 9.25446 3.73434 9.41074 3.57806C9.56702 3.42178 9.77899 3.33398 10 3.33398ZM14.1667 6.66732C14.3877 6.66732 14.5996 6.75512 14.7559 6.9114C14.9122 7.06768 15 7.27964 15 7.50065V15.834C15 16.055 14.9122 16.267 14.7559 16.4232C14.5996 16.5795 14.3877 16.6673 14.1667 16.6673C13.9457 16.6673 13.7337 16.5795 13.5774 16.4232C13.4211 16.267 13.3333 16.055 13.3333 15.834V7.50065C13.3333 7.27964 13.4211 7.06768 13.5774 6.9114C13.7337 6.75512 13.9457 6.66732 14.1667 6.66732ZM5.83333 10.0007C6.05435 10.0007 6.26631 10.0884 6.42259 10.2447C6.57887 10.401 6.66667 10.613 6.66667 10.834V15.834C6.66667 16.055 6.57887 16.267 6.42259 16.4232C6.26631 16.5795 6.05435 16.6673 5.83333 16.6673C5.61232 16.6673 5.40036 16.5795 5.24408 16.4232C5.0878 16.267 5 16.055 5 15.834V10.834C5 10.613 5.0878 10.401 5.24408 10.2447C5.40036 10.0884 5.61232 10.0007 5.83333 10.0007Z" fill="currentColor"/>
</svg>
