<svg width="24" height="24" viewBox="0 0 24 24" fill="none" xmlns="http://www.w3.org/2000/svg">
<path d="M4.52997 12.9701C4.38779 12.8376 4.19975 12.7655 4.00545 12.7689C3.81114 12.7723 3.62576 12.8511 3.48835 12.9885C3.35093 13.1259 3.27222 13.3113 3.26879 13.5056C3.26537 13.6999 3.33749 13.8879 3.46997 14.0301L7.96997 18.5301C8.11059 18.6705 8.30122 18.7494 8.49997 18.7494C8.69872 18.7494 8.88934 18.6705 9.02997 18.5301L20.03 7.53009C20.1625 7.38792 20.2346 7.19987 20.2311 7.00557C20.2277 6.81127 20.149 6.62588 20.0116 6.48847C19.8742 6.35106 19.6888 6.27234 19.4945 6.26892C19.3002 6.26549 19.1121 6.33761 18.97 6.47009L8.49997 16.9401L4.52997 12.9701Z" fill="currentColor"/>
</svg>
