<svg width="20" height="20" viewBox="0 0 20 20" fill="none" xmlns="http://www.w3.org/2000/svg">
<path d="M12.8787 16.2714C12.7782 16.3717 12.6421 16.4281 12.5001 16.4281C12.3581 16.4281 12.222 16.3717 12.1215 16.2714L5.87152 10.0214C5.77119 9.92095 5.71484 9.78479 5.71484 9.64283C5.71484 9.50086 5.77119 9.3647 5.87152 9.26426L12.1215 3.01426C12.1706 2.96162 12.2297 2.91941 12.2954 2.89013C12.3611 2.86085 12.4321 2.8451 12.504 2.84383C12.5759 2.84256 12.6474 2.8558 12.7141 2.88274C12.7808 2.90968 12.8414 2.94979 12.8923 3.00066C12.9431 3.05153 12.9832 3.11212 13.0102 3.17883C13.0371 3.24553 13.0503 3.31698 13.0491 3.38891C13.0478 3.46085 13.0321 3.53178 13.0028 3.5975C12.9735 3.66321 12.9313 3.72235 12.8787 3.7714L7.00723 9.64283L12.8787 15.5143C12.979 15.6147 13.0353 15.7509 13.0353 15.8928C13.0353 16.0348 12.979 16.171 12.8787 16.2714Z" fill="currentColor"/>
</svg>
