<svg width="20" height="20" viewBox="0 0 20 20" fill="none" xmlns="http://www.w3.org/2000/svg">
<path d="M8.79167 2.10925C9.12981 1.82427 9.55779 1.66797 10 1.66797C10.4422 1.66797 10.8702 1.82427 11.2083 2.10925L16.8333 6.85258C17.2558 7.20925 17.5 7.73341 17.5 8.28591V16.0442C17.5 16.431 17.3464 16.802 17.0729 17.0754C16.7994 17.3489 16.4284 17.5026 16.0417 17.5026H13.125C12.7382 17.5026 12.3673 17.3489 12.0938 17.0754C11.8203 16.802 11.6667 16.431 11.6667 16.0442V11.8717C11.6667 11.8165 11.6447 11.7635 11.6056 11.7244C11.5666 11.6854 11.5136 11.6634 11.4583 11.6634H8.54167C8.48641 11.6634 8.43342 11.6854 8.39435 11.7244C8.35528 11.7635 8.33333 11.8165 8.33333 11.8717V16.0442C8.33333 16.431 8.17969 16.802 7.9062 17.0754C7.63271 17.3489 7.26177 17.5026 6.875 17.5026H3.95833C3.76682 17.5026 3.57719 17.4649 3.40025 17.3916C3.22332 17.3183 3.06255 17.2109 2.92714 17.0754C2.79172 16.94 2.6843 16.7793 2.61101 16.6023C2.53772 16.4254 2.5 16.2358 2.5 16.0442V8.28591C2.5 7.73341 2.74417 7.20925 3.16667 6.85258L8.79167 2.10925ZM10.4025 3.06508C10.2898 2.97023 10.1473 2.91822 10 2.91822C9.85272 2.91822 9.71017 2.97023 9.5975 3.06508L3.9725 7.80758C3.90289 7.86618 3.84691 7.93927 3.80848 8.02174C3.77005 8.10422 3.75009 8.19409 3.75 8.28508V16.0434C3.75 16.1584 3.84333 16.2517 3.95833 16.2517H6.875C6.93025 16.2517 6.98324 16.2298 7.02231 16.1907C7.06138 16.1517 7.08333 16.0987 7.08333 16.0434V11.8709C7.08333 11.0651 7.73667 10.4126 8.54167 10.4126H11.4583C12.2633 10.4126 12.9167 11.0651 12.9167 11.8709V16.0434C12.9167 16.1584 13.01 16.2517 13.125 16.2517H16.0417C16.0969 16.2517 16.1499 16.2298 16.189 16.1907C16.2281 16.1517 16.25 16.0987 16.25 16.0434V8.28508C16.2499 8.19409 16.2299 8.10422 16.1915 8.02174C16.1531 7.93927 16.0971 7.86618 16.0275 7.80758L10.4025 3.06508Z" fill="currentColor"/>
</svg>
