<svg width="20" height="21" viewBox="0 0 20 21" fill="none" xmlns="http://www.w3.org/2000/svg">
<path fill-rule="evenodd" clip-rule="evenodd" d="M9.37502 2.31055C5.11835 2.31055 1.66669 5.78815 1.66669 10.0789C1.66669 14.3696 5.11835 17.8472 9.37502 17.8472C11.2033 17.8511 12.9727 17.1963 14.3642 16.0009L17.265 18.9241C17.3222 18.986 17.3912 19.0356 17.4679 19.07C17.5446 19.1045 17.6273 19.123 17.7113 19.1245C17.7952 19.126 17.8785 19.1104 17.9564 19.0787C18.0342 19.047 18.1049 18.9999 18.1642 18.9401C18.2236 18.8802 18.2704 18.809 18.3018 18.7305C18.3332 18.6521 18.3487 18.5681 18.3472 18.4835C18.3457 18.3989 18.3273 18.3155 18.2932 18.2382C18.259 18.1609 18.2098 18.0913 18.1484 18.0337L15.2484 15.1105C16.436 13.7077 17.0869 11.923 17.0834 10.0789C17.0834 5.78815 13.6317 2.31055 9.37502 2.31055ZM2.91669 10.0789C2.91713 8.3526 3.59775 6.69719 4.80888 5.47669C6.02 4.25619 7.66245 3.57055 9.37502 3.57055C10.2317 3.55667 11.0825 3.71476 11.8779 4.03561C12.6733 4.35646 13.3974 4.83364 14.0081 5.43937C14.6187 6.0451 15.1037 6.76726 15.4347 7.56379C15.7658 8.36031 15.9363 9.21527 15.9363 10.0789C15.9363 10.9425 15.7658 11.7974 15.4347 12.5939C15.1037 13.3905 14.6187 14.1126 14.0081 14.7184C13.3974 15.3241 12.6733 15.8013 11.8779 16.1221C11.0825 16.443 10.2317 16.6011 9.37502 16.5872C7.66245 16.5872 6.02 15.9015 4.80888 14.681C3.59775 13.4605 2.91713 11.8051 2.91669 10.0789Z" fill="#94A3B8"/>
</svg>
