<svg width="20" height="20" viewBox="0 0 20 20" fill="none" xmlns="http://www.w3.org/2000/svg">
<path d="M8.94175 4.22685C9.29306 4.18617 9.64643 4.16586 10.0001 4.16602C13.8867 4.16602 17.0001 6.58518 18.3334 9.99935C18.0106 10.8298 17.5745 11.6117 17.0376 12.3227M5.43341 5.43185C3.73341 6.46935 2.41675 8.07685 1.66675 9.99935C3.00008 13.4135 6.11341 15.8327 10.0001 15.8327C11.6102 15.8412 13.1911 15.4027 14.5667 14.566M8.23341 8.23268C8.00125 8.46485 7.81708 8.74047 7.69144 9.04381C7.56579 9.34715 7.50112 9.67227 7.50112 10.0006C7.50112 10.3289 7.56579 10.654 7.69144 10.9574C7.81708 11.2607 8.00125 11.5364 8.23341 11.7685C8.46558 12.0007 8.7412 12.1848 9.04454 12.3105C9.34788 12.4361 9.673 12.5008 10.0013 12.5008C10.3297 12.5008 10.6548 12.4361 10.9581 12.3105C11.2615 12.1848 11.5371 12.0007 11.7692 11.7685" stroke="currentColor" stroke-linecap="round" stroke-linejoin="round"/>
<path d="M3.3335 3.33301L16.6668 16.6663" stroke="currentColor" stroke-linecap="round"/>
</svg>
