<svg width="20" height="20" viewBox="0 0 20 20" fill="none" xmlns="http://www.w3.org/2000/svg">
<path d="M16.6667 9.44401H10.5556V3.3329C10.5556 3.18556 10.497 3.04425 10.3928 2.94006C10.2886 2.83588 10.1473 2.77734 10 2.77734C9.85266 2.77734 9.71135 2.83588 9.60716 2.94006C9.50297 3.04425 9.44444 3.18556 9.44444 3.3329V9.44401H3.33333C3.18599 9.44401 3.04468 9.50254 2.9405 9.60673C2.83631 9.71092 2.77778 9.85222 2.77778 9.99957C2.77504 10.0718 2.7878 10.1437 2.81522 10.2106C2.84263 10.2774 2.88406 10.3376 2.93671 10.3871C2.98935 10.4366 3.052 10.4742 3.12042 10.4975C3.18883 10.5207 3.26144 10.529 3.33333 10.5218H9.44444V16.6662C9.44444 16.8136 9.50297 16.9549 9.60716 17.0591C9.71135 17.1633 9.85266 17.2218 10 17.2218C10.1473 17.2218 10.2886 17.1633 10.3928 17.0591C10.497 16.9549 10.5556 16.8136 10.5556 16.6662V10.5551H16.6667C16.814 10.5551 16.9553 10.4966 17.0595 10.3924C17.1637 10.2882 17.2222 10.1469 17.2222 9.99957C17.2222 9.85222 17.1637 9.71092 17.0595 9.60673C16.9553 9.50254 16.814 9.44401 16.6667 9.44401Z" fill="currentColor"/>
</svg>
