<svg width="20" height="20" viewBox="0 0 20 20" fill="none" xmlns="http://www.w3.org/2000/svg">
<path d="M16.9858 13.2357C16.8854 13.3361 16.7492 13.3924 16.6072 13.3924C16.4653 13.3924 16.3291 13.3361 16.2287 13.2357L10.0001 7.00717L3.77153 13.2357C3.66997 13.3304 3.53566 13.3819 3.39687 13.3794C3.25808 13.377 3.12566 13.3208 3.02751 13.2226C2.92936 13.1245 2.87314 12.992 2.87069 12.8533C2.86824 12.7145 2.91976 12.5802 3.01439 12.4786L9.62153 5.87145C9.72197 5.77113 9.85813 5.71478 10.0001 5.71478C10.1421 5.71478 10.2782 5.77113 10.3787 5.87145L16.9858 12.4786C17.0861 12.579 17.1425 12.7152 17.1425 12.8572C17.1425 12.9991 17.0861 13.1353 16.9858 13.2357Z" fill="currentColor"/>
</svg>
