<svg width="20" height="20" viewBox="0 0 18 13" fill="none" xmlns="http://www.w3.org/2000/svg">
<path d="M7.775 0.560834C8.12631 0.520158 8.47968 0.499846 8.83333 0.500001C12.72 0.500001 15.8333 2.91917 17.1667 6.33333C16.8439 7.1638 16.4078 7.94564 15.8708 8.65667M4.26667 1.76583C2.56667 2.80333 1.25 4.41083 0.5 6.33333C1.83333 9.7475 4.94667 12.1667 8.83333 12.1667C10.4434 12.1752 12.0243 11.7367 13.4 10.9M7.06667 4.56667C6.8345 4.79883 6.65034 5.07445 6.52469 5.37779C6.39904 5.68113 6.33437 6.00625 6.33437 6.33458C6.33437 6.66292 6.39904 6.98803 6.52469 7.29137C6.65034 7.59471 6.8345 7.87033 7.06667 8.1025C7.29883 8.33467 7.57445 8.51883 7.87779 8.64448C8.18113 8.77013 8.50625 8.8348 8.83458 8.8348C9.16292 8.8348 9.48803 8.77013 9.79137 8.64448C10.0947 8.51883 10.3703 8.33467 10.6025 8.1025" stroke="currentColor" stroke-linecap="round" stroke-linejoin="round"/>
</svg>
