<svg width="20" height="20" viewBox="0 0 20 20" fill="none" xmlns="http://www.w3.org/2000/svg">
<path d="M6.66667 7.50065C6.43056 7.50065 6.23278 7.42065 6.07334 7.26065C5.91389 7.10065 5.83389 6.90287 5.83334 6.66732C5.83278 6.43176 5.91278 6.23398 6.07334 6.07398C6.23389 5.91398 6.43167 5.83398 6.66667 5.83398H16.6667C16.9028 5.83398 17.1008 5.91398 17.2608 6.07398C17.4208 6.23398 17.5006 6.43176 17.5 6.66732C17.4994 6.90287 17.4194 7.10093 17.26 7.26148C17.1006 7.42204 16.9028 7.50176 16.6667 7.50065H6.66667ZM6.66667 10.834C6.43056 10.834 6.23278 10.754 6.07334 10.594C5.91389 10.434 5.83389 10.2362 5.83334 10.0007C5.83278 9.7651 5.91278 9.56732 6.07334 9.40732C6.23389 9.24732 6.43167 9.16732 6.66667 9.16732H16.6667C16.9028 9.16732 17.1008 9.24732 17.2608 9.40732C17.4208 9.56732 17.5006 9.7651 17.5 10.0007C17.4994 10.2362 17.4194 10.4343 17.26 10.5948C17.1006 10.7554 16.9028 10.8351 16.6667 10.834H6.66667ZM6.66667 14.1673C6.43056 14.1673 6.23278 14.0873 6.07334 13.9273C5.91389 13.7673 5.83389 13.5695 5.83334 13.334C5.83278 13.0984 5.91278 12.9007 6.07334 12.7407C6.23389 12.5807 6.43167 12.5007 6.66667 12.5007H16.6667C16.9028 12.5007 17.1008 12.5807 17.2608 12.7407C17.4208 12.9007 17.5006 13.0984 17.5 13.334C17.4994 13.5695 17.4194 13.7676 17.26 13.9282C17.1006 14.0887 16.9028 14.1684 16.6667 14.1673H6.66667ZM3.33334 7.50065C3.09723 7.50065 2.89945 7.42065 2.74 7.26065C2.58056 7.10065 2.50056 6.90287 2.5 6.66732C2.49945 6.43176 2.57945 6.23398 2.74 6.07398C2.90056 5.91398 3.09834 5.83398 3.33334 5.83398C3.56834 5.83398 3.76639 5.91398 3.9275 6.07398C4.08861 6.23398 4.16834 6.43176 4.16667 6.66732C4.165 6.90287 4.085 7.10093 3.92667 7.26148C3.76834 7.42204 3.57056 7.50176 3.33334 7.50065ZM3.33334 10.834C3.09723 10.834 2.89945 10.754 2.74 10.594C2.58056 10.434 2.50056 10.2362 2.5 10.0007C2.49945 9.7651 2.57945 9.56732 2.74 9.40732C2.90056 9.24732 3.09834 9.16732 3.33334 9.16732C3.56834 9.16732 3.76639 9.24732 3.9275 9.40732C4.08861 9.56732 4.16834 9.7651 4.16667 10.0007C4.165 10.2362 4.085 10.4343 3.92667 10.5948C3.76834 10.7554 3.57056 10.8351 3.33334 10.834ZM3.33334 14.1673C3.09723 14.1673 2.89945 14.0873 2.74 13.9273C2.58056 13.7673 2.50056 13.5695 2.5 13.334C2.49945 13.0984 2.57945 12.9007 2.74 12.7407C2.90056 12.5807 3.09834 12.5007 3.33334 12.5007C3.56834 12.5007 3.76639 12.5807 3.9275 12.7407C4.08861 12.9007 4.16834 13.0984 4.16667 13.334C4.165 13.5695 4.085 13.7676 3.92667 13.9282C3.76834 14.0887 3.57056 14.1684 3.33334 14.1673Z" fill="currentColor"/>
</svg>
