<svg width="20" height="20" viewBox="0 0 20 20" fill="none" xmlns="http://www.w3.org/2000/svg">
<path d="M10.0045 10.0073C11.9967 10.0073 13.6206 8.23305 13.6206 6.0734C13.6206 3.93055 12.0135 2.24805 10.0045 2.24805C8.02062 2.24805 6.38848 3.96412 6.38848 6.09019C6.39669 8.24126 8.02062 10.0073 10.0045 10.0073ZM10.0045 8.7434C8.7824 8.7434 7.73598 7.57198 7.73598 6.08983C7.73598 4.63376 8.76562 3.51198 10.0045 3.51198C11.2599 3.51198 12.2728 4.61698 12.2728 6.0734C12.2728 7.55483 11.2431 8.7434 10.0045 8.7434ZM4.74776 17.7505H15.2613C16.6506 17.7505 17.312 17.3316 17.312 16.4113C17.312 14.2177 14.5495 11.0455 10.0045 11.0455C5.45919 11.0455 2.68848 14.218 2.68848 16.4109C2.68848 17.3316 3.34991 17.7505 4.74776 17.7505ZM4.34598 16.4859C4.12812 16.4859 4.03633 16.4273 4.03633 16.2516C4.03633 14.8788 6.16241 12.3088 10.0042 12.3088C13.8467 12.3088 15.9642 14.8788 15.9642 16.2516C15.9642 16.4273 15.8806 16.4859 15.6631 16.4859H4.34598Z" fill="currentColor"/>
</svg>
